<svg width="25" height="28" viewBox="0 0 25 28" fill="none" xmlns="http://www.w3.org/2000/svg">
<path d="M23 26V23.3333C23 21.9188 22.4469 20.5623 21.4623 19.5621C20.4777 18.5619 19.1424 18 17.75 18H7.25C5.85761 18 4.52226 18.5619 3.53769 19.5621C2.55312 20.5623 2 21.9188 2 23.3333V26" fill="white"/>
<path d="M12.5 12.6667C15.3995 12.6667 17.75 10.2789 17.75 7.33333C17.75 4.38781 15.3995 2 12.5 2C9.6005 2 7.25 4.38781 7.25 7.33333C7.25 10.2789 9.6005 12.6667 12.5 12.6667Z" fill="white"/>
<path d="M23 26V23.3333C23 21.9188 22.4469 20.5623 21.4623 19.5621C20.4777 18.5619 19.1424 18 17.75 18H7.25C5.85761 18 4.52226 18.5619 3.53769 19.5621C2.55312 20.5623 2 21.9188 2 23.3333V26M17.75 7.33333C17.75 10.2789 15.3995 12.6667 12.5 12.6667C9.6005 12.6667 7.25 10.2789 7.25 7.33333C7.25 4.38781 9.6005 2 12.5 2C15.3995 2 17.75 4.38781 17.75 7.33333Z" stroke="white" stroke-width="4" stroke-linecap="square" stroke-linejoin="round"/>
</svg>
