<svg width="77" height="50" viewBox="0 0 77 50" fill="none" xmlns="http://www.w3.org/2000/svg">
<path d="M70.5872 21.1668C70.9137 20.3526 71.0988 19.4672 71.0988 18.5387C71.0988 16.1142 69.8721 13.9715 68.0063 12.6865V10.0939C68.0063 4.52801 63.4568 0 57.8652 0H19.1351C13.5432 0 8.99405 4.52801 8.99405 10.0939V12.4507C7.1389 13.6217 5.90152 15.6784 5.90152 18.0217V18.5387C5.90152 19.4676 6.08626 20.3526 6.41315 21.1668C2.73002 22.1067 0 25.4381 0 29.3926V43.1415H5.90115V50H8.83943V43.1415H68.1606V50H71.0988V43.1415H77V29.3926C77 25.4381 74.27 22.1067 70.5872 21.1668ZM67.4245 20.9014H47.4369C46.9731 20.228 46.7009 19.4146 46.7009 18.5383V18.0214C46.7009 15.9957 48.357 14.3477 50.3921 14.3477H63.9504C66.272 14.3477 68.1609 16.2279 68.1609 18.5383C68.1606 19.4146 67.8881 20.2283 67.4245 20.9014ZM33.1345 17.3801H43.7953C43.7747 17.5915 43.7626 17.8049 43.7626 18.0214V18.5383C43.7626 19.3674 43.9132 20.1607 44.1766 20.9014H32.8238C33.0872 20.1607 33.2377 19.3678 33.2377 18.5383C33.2377 18.1431 33.197 17.7582 33.1345 17.3801ZM8.83943 18.0214C8.83943 15.9957 10.4955 14.3477 12.5306 14.3477H26.0889C28.4105 14.3477 30.2995 16.2279 30.2995 18.5383C30.2995 19.4146 30.0269 20.228 29.5634 20.9014H9.57583C9.11195 20.228 8.83979 19.4146 8.83979 18.5383V18.0214H8.83943Z" fill="white"/>
</svg>
