<svg width="41" height="50" viewBox="0 0 41 50" fill="none" xmlns="http://www.w3.org/2000/svg">
<path d="M38.7222 18.1818H34.1667V12.5C34.1667 9.18479 32.8468 6.00537 30.4974 3.66117C28.148 1.31696 24.9615 0 21.6389 0H19.3611C16.0385 0 12.852 1.31696 10.5026 3.66117C8.15322 6.00537 6.83333 9.18479 6.83333 12.5V18.1818H2.27778C1.67367 18.1818 1.09431 18.4213 0.667146 18.8475C0.239979 19.2737 0 19.8518 0 20.4545V47.7273C0 48.33 0.239979 48.9081 0.667146 49.3343C1.09431 49.7606 1.67367 50 2.27778 50H38.7222C39.3263 50 39.9057 49.7606 40.3329 49.3343C40.76 48.9081 41 48.33 41 47.7273V20.4545C41 19.8518 40.76 19.2737 40.3329 18.8475C39.9057 18.4213 39.3263 18.1818 38.7222 18.1818ZM11.3889 12.5C11.3889 10.3903 12.2288 8.36705 13.7239 6.87529C15.219 5.38352 17.2467 4.54545 19.3611 4.54545H21.6389C23.7533 4.54545 25.781 5.38352 27.2761 6.87529C28.7712 8.36705 29.6111 10.3903 29.6111 12.5V18.1818H11.3889V12.5ZM10.25 37.5C9.57425 37.5 8.91367 37.3001 8.3518 36.9255C7.78993 36.5509 7.35201 36.0184 7.09341 35.3955C6.83481 34.7726 6.76715 34.0871 6.89898 33.4258C7.03082 32.7645 7.35622 32.1571 7.83405 31.6803C8.31188 31.2035 8.92067 30.8789 9.58344 30.7473C10.2462 30.6158 10.9332 30.6833 11.5575 30.9413C12.1818 31.1993 12.7154 31.6363 13.0909 32.1969C13.4663 32.7575 13.6667 33.4167 13.6667 34.0909C13.6826 34.5429 13.6051 34.9933 13.439 35.4141C13.2729 35.8348 13.0218 36.217 12.7013 36.5368C12.3808 36.8566 11.9978 37.1071 11.5761 37.2728C11.1544 37.4385 10.703 37.5159 10.25 37.5ZM20.5 37.5C19.8242 37.5 19.1637 37.3001 18.6018 36.9255C18.0399 36.5509 17.602 36.0184 17.3434 35.3955C17.0848 34.7726 17.0172 34.0871 17.149 33.4258C17.2808 32.7645 17.6062 32.1571 18.0841 31.6803C18.5619 31.2035 19.1707 30.8789 19.8334 30.7473C20.4962 30.6158 21.1832 30.6833 21.8075 30.9413C22.4318 31.1993 22.9654 31.6363 23.3409 32.1969C23.7163 32.7575 23.9167 33.4167 23.9167 34.0909C23.9326 34.5429 23.8551 34.9933 23.689 35.4141C23.5229 35.8348 23.2718 36.217 22.9513 36.5368C22.6308 36.8566 22.2478 37.1071 21.8261 37.2728C21.4044 37.4385 20.953 37.5159 20.5 37.5ZM30.75 37.5C30.0742 37.5 29.4137 37.3001 28.8518 36.9255C28.2899 36.5509 27.852 36.0184 27.5934 35.3955C27.3348 34.7726 27.2671 34.0871 27.399 33.4258C27.5308 32.7645 27.8562 32.1571 28.334 31.6803C28.8119 31.2035 29.4207 30.8789 30.0834 30.7473C30.7462 30.6158 31.4332 30.6833 32.0575 30.9413C32.6818 31.1993 33.2154 31.6363 33.5909 32.1969C33.9663 32.7575 34.1667 33.4167 34.1667 34.0909C34.1826 34.5429 34.1051 34.9933 33.939 35.4141C33.7729 35.8348 33.5218 36.217 33.2013 36.5368C32.8808 36.8566 32.4978 37.1071 32.0761 37.2728C31.6544 37.4385 31.203 37.5159 30.75 37.5Z" fill="white"/>
</svg>
