<svg width="31" height="31" viewBox="0 0 31 31" fill="none" xmlns="http://www.w3.org/2000/svg">
<path d="M22.6667 8H22.68M8.66667 2H22C25.6819 2 28.6667 4.98477 28.6667 8.66667V22C28.6667 25.6819 25.6819 28.6667 22 28.6667H8.66667C4.98477 28.6667 2 25.6819 2 22V8.66667C2 4.98477 4.98477 2 8.66667 2ZM20.6667 14.4933C20.8312 15.603 20.6417 16.7363 20.125 17.732C19.6083 18.7278 18.7909 19.5352 17.7888 20.0396C16.7868 20.5439 15.6513 20.7195 14.5437 20.5412C13.4362 20.363 12.413 19.8401 11.6198 19.0469C10.8266 18.2537 10.3036 17.2305 10.1254 16.123C9.9472 15.0154 10.1228 13.8799 10.6271 12.8778C11.1315 11.8758 11.9389 11.0583 12.9346 10.5417C13.9304 10.025 15.0637 9.83545 16.1733 10C17.3052 10.1678 18.3531 10.6953 19.1623 11.5044C19.9714 12.3135 20.4988 13.3614 20.6667 14.4933Z" stroke="white" stroke-width="3" stroke-linecap="round" stroke-linejoin="round"/>
</svg>
