<svg width="31" height="22" viewBox="0 0 31 22" fill="none" xmlns="http://www.w3.org/2000/svg">
<path d="M28.2 1H2.43158C1.64095 1 1 1.6396 1 2.42857V7.42857H1.85895C3.83554 7.42857 5.43789 9.02757 5.43789 11C5.43789 12.9724 3.83554 14.5714 1.85895 14.5714H1V19.5714C1 20.3604 1.64095 21 2.43158 21H28.2C28.9907 21 29.6316 20.3604 29.6316 19.5714V14.5714H29.4884C27.5118 14.5714 25.9095 12.9724 25.9095 11C25.9095 9.02757 27.5118 7.42857 29.4884 7.42857H29.6316V2.42857C29.6316 1.6396 28.9907 1 28.2 1Z" stroke="white" stroke-width="2" stroke-linecap="round" stroke-linejoin="round"/>
<path d="M19.6316 1V21" stroke="white" stroke-width="2" stroke-linecap="round" stroke-linejoin="round" stroke-dasharray="100 100"/>
</svg>
