<svg width="20" height="20" viewBox="0 0 20 20" fill="none" xmlns="http://www.w3.org/2000/svg">
<path d="M14.799 11.4923C14.76 11.4736 13.302 10.7556 13.0429 10.6623C12.9371 10.6244 12.8238 10.5873 12.7033 10.5873C12.5064 10.5873 12.341 10.6854 12.2122 10.8781C12.0665 11.0946 11.6256 11.61 11.4894 11.764C11.4716 11.7843 11.4473 11.8086 11.4327 11.8086C11.4197 11.8086 11.194 11.7156 11.1257 11.686C9.56163 11.0066 8.37443 9.37273 8.21163 9.09721C8.18839 9.0576 8.18741 9.03961 8.18722 9.03961C8.19293 9.01864 8.24553 8.96591 8.27267 8.9387C8.35209 8.86013 8.43813 8.75656 8.52137 8.65636C8.56079 8.6089 8.60027 8.56136 8.63904 8.51656C8.75982 8.37604 8.81358 8.26695 8.87592 8.14058L8.90858 8.07494C9.06079 7.77253 8.93079 7.51734 8.88878 7.43494C8.8543 7.36597 8.23865 5.88013 8.17319 5.72403C8.01579 5.34734 7.8078 5.17195 7.51878 5.17195C7.49196 5.17195 7.51877 5.17195 7.40631 5.17669C7.26936 5.18247 6.52358 5.28065 6.19384 5.48851C5.84416 5.70896 5.2526 6.41169 5.2526 7.64753C5.2526 8.75981 5.95845 9.81 6.2615 10.2094C6.26903 10.2195 6.28287 10.2399 6.30293 10.2693C7.46352 11.9642 8.91033 13.2203 10.377 13.8062C11.789 14.3703 12.4577 14.4355 12.8378 14.4355H12.8379C12.9976 14.4355 13.1255 14.4229 13.2383 14.4118L13.3098 14.405C13.7976 14.3618 14.8696 13.8063 15.1134 13.1287C15.3055 12.595 15.3561 12.0119 15.2283 11.8003C15.1408 11.6564 14.99 11.584 14.799 11.4923Z" fill="white"/>
<path d="M10.1775 0C4.7609 0 0.354141 4.37364 0.354141 9.74955C0.354141 11.4883 0.819466 13.1903 1.70096 14.6799L0.0137512 19.6569C-0.0176774 19.7497 0.00569921 19.8523 0.0743356 19.9221C0.123881 19.9727 0.191089 20 0.259725 20C0.286024 20 0.312518 19.996 0.338362 19.9878L5.52798 18.3387C6.94811 19.0975 8.55317 19.498 10.1776 19.498C15.5937 19.4981 20 15.1249 20 9.74955C20 4.37364 15.5937 0 10.1775 0ZM10.1775 17.4671C8.64902 17.4671 7.16856 17.0258 5.89596 16.1907C5.85317 16.1626 5.8035 16.1482 5.7535 16.1482C5.72707 16.1482 5.70057 16.1522 5.67479 16.1604L3.07512 16.9868L3.91434 14.5108C3.94148 14.4307 3.92791 14.3423 3.87791 14.274C2.90882 12.9499 2.39655 11.3854 2.39655 9.74955C2.39655 5.49351 5.88707 2.03091 10.1775 2.03091C14.4673 2.03091 17.9575 5.49351 17.9575 9.74955C17.9575 14.0051 14.4675 17.4671 10.1775 17.4671Z" fill="white"/>
</svg>
