<svg width="14" height="19" viewBox="0 0 14 19" fill="none" xmlns="http://www.w3.org/2000/svg">
<path d="M7 19C6.76667 19 6.56667 18.9333 6.4 18.8C6.23333 18.6667 6.10833 18.4917 6.025 18.275C5.70833 17.3417 5.30833 17.4667 4.825 16.65C4.35833 15.8333 3.7 14.875 2.85 13.775C2 12.675 1.30833 11.625 0.775 10.625C0.258333 9.625 0 8.41667 0 7C0 5.05 0.675 3.4 2.025 2.05C3.39167 0.683333 5.05 0 7 0C8.95 0 10.6 0.683333 11.95 2.05C13.3167 3.4 14 5.05 14 7C14 8.51667 13.7083 9.78333 13.125 10.8C12.5583 11.8 11.9 12.7917 11.15 13.775C10.25 14.975 9.56667 15.975 9.1 16.775C8.65 17.5583 8.275 17.3917 7.975 18.275C7.89167 18.5083 7.75833 18.6917 7.575 18.825C7.40833 18.9417 7.21667 19 7 19ZM7 9.5C7.7 9.5 8.29167 9.25833 8.775 8.775C9.25833 8.29167 9.5 7.7 9.5 7C9.5 6.3 9.25833 5.70833 8.775 5.225C8.29167 4.74167 7.7 4.5 7 4.5C6.3 4.5 5.70833 4.74167 5.225 5.225C4.74167 5.70833 4.5 6.3 4.5 7C4.5 7.7 4.74167 8.29167 5.225 8.775C5.70833 9.25833 6.3 9.5 7 9.5Z" fill="white"/>
</svg>
